<svg width="56" height="55" viewBox="0 0 56 55" fill="none" xmlns="http://www.w3.org/2000/svg">
<g id="Engineer" clip-path="url(#clip0_208_25)">
<path id="Vector" d="M45.7602 45.4957H47.1899C47.7576 45.4957 48.2834 45.1969 48.5742 44.7093C48.865 44.2217 48.8775 43.617 48.6077 43.1177C47.1966 40.5094 44.4795 38.8888 41.5166 38.8888C38.9733 38.8888 36.5819 40.1032 35.0713 42.1115H20.3604C18.8548 40.0776 16.5062 38.8888 13.9079 38.8888C10.9446 38.8888 8.2276 40.5094 6.81685 43.1177C6.54703 43.617 6.55962 44.2217 6.85042 44.7093C7.14079 45.1969 7.66699 45.4957 8.23431 45.4957H9.66437C10.5531 45.4957 11.2757 46.2187 11.2757 47.107C11.2757 47.9957 10.5531 48.7183 9.66437 48.7183H8.42104C7.83693 48.7183 7.29815 49.0347 7.01365 49.5454C6.72915 50.0556 6.74299 50.68 7.05057 51.1768C8.53476 53.5787 11.0839 55.0004 13.8916 55C13.9386 55 13.986 54.9996 14.0334 54.9987C16.5834 54.9555 18.8859 53.7692 20.3625 51.7803H35.0688C36.5568 53.7734 38.86 54.9589 41.3983 54.9958C44.263 55.039 46.8701 53.6102 48.374 51.1773C48.6812 50.68 48.695 50.0556 48.4105 49.5454C48.126 49.0347 47.5876 48.7183 47.0031 48.7183H45.7602C44.8715 48.7183 44.1485 47.9957 44.1485 47.107C44.1485 46.2187 44.8715 45.4957 45.7602 45.4957ZM43.4758 51.3665C42.8502 51.6414 42.1637 51.7849 41.4453 51.7731C39.7265 51.7484 38.1874 50.8466 37.3284 49.3616C37.0406 48.8639 36.5089 48.5572 35.9336 48.5572H19.4939C18.9161 48.5572 18.3823 48.8669 18.0953 49.3683C17.2498 50.8466 15.7106 51.7467 13.9784 51.7765C13.2475 51.787 12.5585 51.6493 11.9341 51.3745C13.459 50.56 14.4988 48.9529 14.4988 47.107C14.4988 45.1373 13.3146 43.4387 11.6206 42.6863C12.3113 42.3154 13.0939 42.1115 13.9079 42.1115C15.664 42.1115 17.2284 43.0132 18.0924 44.523C18.3794 45.0248 18.9131 45.3345 19.491 45.3345H35.9336C36.5089 45.3345 37.0406 45.0278 37.3284 44.5301C38.1912 43.0384 39.7962 42.1115 41.5166 42.1115C42.3303 42.1115 43.1129 42.3154 43.804 42.6863C42.11 43.4387 40.9258 45.1373 40.9258 47.107C40.9258 48.947 41.9589 50.5499 43.4758 51.3665Z" fill="#32419C"/>
<path id="Vector_2" d="M47.7931 22.2376H46.1755V16.7989C46.1755 10.349 40.9454 5.0975 34.5039 5.06226C33.7809 2.15851 31.1511 0 28.0267 0C24.9022 0 22.272 2.15851 21.5494 5.06268C15.1075 5.0975 9.87781 10.349 9.87781 16.7989V22.2376H8.25977C7.36976 22.2376 6.64844 22.9589 6.64844 23.8489V28.1462C6.64844 28.7895 7.03113 29.3711 7.62195 29.6258C14.1566 32.4422 20.8457 33.8962 27.5038 33.9466C27.6234 33.9474 27.7434 33.9482 27.8634 33.9482C34.6427 33.9482 41.5547 32.4968 48.4141 29.6329C49.0138 29.3824 49.4044 28.7962 49.4044 28.1462V23.8489C49.4044 22.9589 48.6831 22.2376 47.7931 22.2376ZM13.1005 16.7989C13.1005 12.192 16.7792 8.43052 21.3526 8.29163V12.8306C21.3526 13.7206 22.074 14.4419 22.964 14.4419C23.854 14.4419 24.5753 13.7206 24.5753 12.8306C24.5753 12.8306 24.5757 6.71638 24.5757 6.67358C24.5757 4.77104 26.1237 3.22266 28.0267 3.22266C29.9292 3.22266 31.4776 4.77062 31.4776 6.67358V12.8306C31.4776 13.7206 32.1989 14.4419 33.0889 14.4419C33.9789 14.4419 34.7002 13.7206 34.7002 12.8306V8.29163C39.2741 8.43052 42.9524 12.192 42.9524 16.7989V22.2376H13.1005V16.7989ZM46.1818 27.0619C33.942 31.9118 21.7374 31.916 9.87109 27.0745V25.4602H46.1818V27.0619Z" fill="#32419C"/>
</g>
<defs>
<clipPath id="clip0_208_25">
<rect width="55" height="55" fill="white" transform="translate(0.5)"/>
</clipPath>
</defs>
</svg>
