<svg width="56" height="55" viewBox="0 0 56 55" fill="none" xmlns="http://www.w3.org/2000/svg">
<g id="Group">
<path id="Vector" d="M19.3079 28.7752C16.9938 26.4611 13.2449 26.4561 10.9274 28.7749C10.8227 28.8796 10.7223 28.9876 10.6263 29.0985V20.3599C10.6263 15.6647 6.80652 11.8448 2.11133 11.8448C1.22145 11.8448 0.5 12.5663 0.5 13.4562V38.2653C0.5 38.6926 0.669727 39.1024 0.971904 39.4046L13.1733 51.6068V53.386C13.1733 54.2759 13.8948 54.9973 14.7846 54.9973H24.5481C25.438 54.9973 26.1594 54.2759 26.1594 53.386V38.0815C26.1594 36.4986 25.5432 35.0106 24.4241 33.8916L19.3079 28.7752ZM22.937 51.7747H16.3962V50.9396C16.3962 50.5123 16.2265 50.1025 15.9243 49.8003L3.72276 37.5979V15.3183C5.85552 16.0015 7.40379 18.0032 7.40379 20.3599V32.9651C7.40379 33.3925 7.57362 33.8022 7.8758 34.1044L14.7794 41.0081C15.4085 41.6372 16.4287 41.6373 17.0581 41.0081C17.6874 40.3789 17.6874 39.3586 17.0581 38.7293L13.2059 34.8771C12.1503 33.8215 12.1474 32.1117 13.2062 31.0535C14.2618 29.9973 15.9718 29.9965 17.029 31.0538L22.1455 36.1702C22.6485 36.6732 22.9369 37.3698 22.9369 38.0815V51.7747H22.937Z" fill="#32419C"/>
<path id="Vector_2" d="M53.8889 11.8448C49.1937 11.8448 45.3739 15.6647 45.3739 20.3599V29.0985C45.278 28.9876 45.1775 28.8796 45.0728 28.7749C42.7554 26.4561 39.0065 26.4611 36.6924 28.7752L31.5761 33.8916C30.4571 35.0106 29.8408 36.4986 29.8408 38.0815V53.386C29.8408 54.2759 30.5623 54.9973 31.4521 54.9973H41.2156C42.1055 54.9973 42.8269 54.2759 42.8269 53.386V51.6068L55.0283 39.4046C55.3305 39.1024 55.5003 38.6926 55.5003 38.2653V13.4562C55.5003 12.5663 54.7788 11.8448 53.8889 11.8448ZM52.2776 37.5979L40.0762 49.8002C39.774 50.1024 39.6043 50.5122 39.6043 50.9395V51.7746H33.0635V38.0815C33.0635 37.3698 33.3519 36.6733 33.8549 36.1702L38.9714 31.0538C40.0287 29.9965 41.7387 29.9973 42.7942 31.0535C43.8529 32.1117 43.85 33.8215 42.7945 34.8771L38.9422 38.7293C38.3131 39.3586 38.3131 40.3788 38.9422 41.0081C39.5715 41.6373 40.5917 41.6372 41.221 41.0081L48.1246 34.1044C48.4267 33.8022 48.5966 33.3924 48.5966 32.9651V20.3599C48.5966 18.0032 50.1448 16.0015 52.2776 15.3183V37.5979Z" fill="#32419C"/>
<path id="Vector_3" d="M36.2377 25.3492C36.6549 25.0461 36.9018 24.5615 36.9018 24.0457V16.9044L41.0997 11.1258C41.7451 10.2688 41.3197 8.96019 40.294 8.64631L33.5017 6.43932L29.3038 0.661638C28.6882 -0.217073 27.3121 -0.216858 26.6966 0.661638L22.4988 6.43932L15.7065 8.64631C14.6807 8.96019 14.2555 10.2689 14.9009 11.1258L19.0987 16.9044V24.0457C19.0987 24.5615 19.3457 25.0461 19.7629 25.3492C20.1801 25.6525 20.7176 25.7377 21.2079 25.578L28.0002 23.3711L34.7925 25.578C35.283 25.7377 35.8203 25.6524 36.2377 25.3492ZM33.6792 16.3808V21.8277L28.4982 20.1443C28.1746 20.0391 27.826 20.0391 27.5023 20.1443L22.3214 21.8277V16.3808C22.3214 16.0406 22.2137 15.7091 22.0137 15.4338L18.8116 11.0258L23.9927 9.34229C24.3164 9.23713 24.5984 9.03227 24.7984 8.75695L28.0002 4.35008L31.2021 8.75706C31.4022 9.03227 31.6841 9.23723 32.0078 9.3424L37.189 11.0259L33.9868 15.4339C33.7868 15.7091 33.6792 16.0406 33.6792 16.3808Z" fill="#32419C"/>
</g>
</svg>
