<svg width="56" height="55" viewBox="0 0 56 55" fill="none" xmlns="http://www.w3.org/2000/svg">
<g clip-path="url(#clip0_208_86)">
<path d="M51.8429 28.2123C51.6216 27.7595 51.6216 27.2403 51.8429 26.7876L53.8942 22.5912C55.0363 20.2547 54.1314 17.4698 51.8341 16.2509L47.708 14.0616C47.2628 13.8255 46.9577 13.4053 46.8705 12.9091L46.0636 8.30835C45.6143 5.74678 43.2448 4.02546 40.6702 4.38973L36.0454 5.04392C35.5462 5.11439 35.0526 4.9539 34.6905 4.6036L31.3335 1.35604C29.4642 -0.452286 26.5359 -0.452394 24.6668 1.35604L21.3097 4.60392C20.9474 4.95433 20.4538 5.1145 19.9548 5.04424L15.33 4.39005C12.7545 4.02557 10.3859 5.7471 9.93654 8.30867L9.1296 12.9092C9.04248 13.4055 8.73729 13.8256 8.29225 14.0618L4.1662 16.2511C1.86889 17.4699 0.963969 20.255 2.10607 22.5915L4.15728 26.7878C4.37857 27.2406 4.37857 27.7599 4.15728 28.2125L2.10596 32.4088C0.963862 34.7454 1.86878 37.5303 4.16609 38.7492L8.29214 40.9384C8.73729 41.1745 9.04248 41.5948 9.1296 42.0909L9.93654 46.6917C10.3456 49.0236 12.3451 50.659 14.6432 50.6587C14.8695 50.6587 15.0992 50.6428 15.3301 50.6102L19.9549 49.956C20.4536 49.8852 20.9475 50.046 21.3098 50.3963L24.6668 53.6439C25.6016 54.5481 26.8006 55.0002 28.0001 55.0001C29.1992 55 30.399 54.5479 31.3334 53.6439L34.6905 50.3963C35.0527 50.046 35.5464 49.886 36.0454 49.956L40.6702 50.6102C43.2459 50.9746 45.6143 49.2531 46.0636 46.6916L46.8707 42.091C46.9578 41.5948 47.263 41.1746 47.708 40.9384L51.8341 38.7492C54.1314 37.5304 55.0363 34.7453 53.8942 32.4087L51.8429 28.2123ZM50.3472 35.9469L46.2212 38.1361C44.9057 38.8342 44.0035 40.0758 43.7462 41.5428L42.9393 46.1434C42.7873 47.0101 41.986 47.5922 41.1145 47.4692L36.4897 46.815C35.0148 46.6061 33.5554 47.0808 32.4849 48.1162L29.1278 51.3636C28.4955 51.9753 27.5048 51.9753 26.8723 51.3636L23.5152 48.1161C22.6105 47.2409 21.4278 46.7667 20.1931 46.7667C19.9669 46.7667 19.7388 46.7826 19.5105 46.8149L14.8857 47.4691C14.0149 47.5922 13.213 47.01 13.0609 46.1433L12.2538 41.5425C11.9965 40.0756 11.0943 38.8339 9.77874 38.136L5.65269 35.9468C4.87539 35.5344 4.56924 34.5922 4.95564 33.8017L7.00695 29.6053C7.66093 28.2672 7.66093 26.7326 7.00695 25.3946L4.95564 21.1981C4.56924 20.4076 4.87539 19.4654 5.65269 19.053L9.77874 16.8638C11.0942 16.1657 11.9965 14.9241 12.2537 13.4572L13.0607 8.85652C13.2128 7.98984 14.0139 7.40762 14.8854 7.53072L19.5102 8.18492C20.9846 8.39364 22.4446 7.91916 23.515 6.88373L26.8721 3.63617C27.5044 3.02451 28.4952 3.02451 29.1277 3.63617L32.4847 6.88373C33.5551 7.91927 35.0149 8.39364 36.4895 8.18492L41.1143 7.53072C41.9851 7.40751 42.787 7.98984 42.939 8.85652L43.746 13.4573C44.0034 14.9242 44.9055 16.1659 46.2211 16.8638L50.3471 19.053C51.1244 19.4654 51.4306 20.4076 51.0442 21.1981L48.9929 25.3944C48.3389 26.7324 48.3389 28.2672 48.9929 29.6051L51.0442 33.8014C51.4307 34.5922 51.1245 35.5345 50.3472 35.9469Z" fill="#32419C"/>
<path d="M39.5891 15.9108C38.9698 15.2914 37.9654 15.2914 37.3461 15.9108L16.4108 36.8462C15.7914 37.4656 15.7914 38.4698 16.4108 39.0892C16.7205 39.3989 17.1265 39.5538 17.5323 39.5538C17.9381 39.5538 18.3442 39.399 18.6538 39.0892L39.589 18.154C40.2086 17.5345 40.2086 16.5303 39.5891 15.9108Z" fill="#32419C"/>
<path d="M21.6558 13.2252C18.449 13.2252 15.8401 15.8342 15.8401 19.0409C15.8401 22.2476 18.449 24.8566 21.6558 24.8566C24.8625 24.8566 27.4714 22.2476 27.4714 19.0409C27.4714 15.8342 24.8625 13.2252 21.6558 13.2252ZM21.6558 21.6843C20.1982 21.6843 19.0123 20.4985 19.0123 19.0408C19.0123 17.5832 20.1982 16.3974 21.6558 16.3974C23.1134 16.3974 24.2993 17.5832 24.2993 19.0408C24.2992 20.4985 23.1134 21.6843 21.6558 21.6843Z" fill="#32419C"/>
<path d="M34.3442 30.1434C31.1375 30.1434 28.5286 32.7524 28.5286 35.9591C28.5286 39.1659 31.1375 41.7748 34.3442 41.7748C37.551 41.7748 40.1599 39.1659 40.1599 35.9591C40.1599 32.7524 37.551 30.1434 34.3442 30.1434ZM34.3442 38.6025C32.8866 38.6025 31.7007 37.4167 31.7007 35.9591C31.7007 34.5015 32.8865 33.3157 34.3442 33.3157C35.8018 33.3157 36.9877 34.5015 36.9877 35.9591C36.9877 37.4167 35.8018 38.6025 34.3442 38.6025Z" fill="#32419C"/>
</g>
<defs>
<clipPath id="clip0_208_86">
<rect width="55" height="55" fill="white" transform="translate(0.5)"/>
</clipPath>
</defs>
</svg>
