<svg width="56" height="43" viewBox="0 0 56 43" fill="none" xmlns="http://www.w3.org/2000/svg">
<g id="Group">
<path id="Vector" d="M53.8887 0.773438H2.11133C1.22145 0.773438 0.5 1.49488 0.5 2.38477V40.6152C0.5 41.5051 1.22145 42.2266 2.11133 42.2266H53.8887C54.7786 42.2266 55.5 41.5051 55.5 40.6152V2.38477C55.5 1.49488 54.7786 0.773438 53.8887 0.773438ZM52.2773 39.004H3.72266V3.99609H52.2773V39.004Z" fill="#32419C"/>
<path id="Vector_2" d="M8.88477 18.8809H27.6962C28.586 18.8809 29.3075 18.1594 29.3075 17.2695C29.3075 16.3796 28.586 15.6582 27.6962 15.6582H8.88477C7.99488 15.6582 7.27344 16.3796 7.27344 17.2695C7.27344 18.1594 7.99488 18.8809 8.88477 18.8809Z" fill="#32419C"/>
<path id="Vector_3" d="M8.88477 12.4166H27.6962C28.586 12.4166 29.3075 11.6952 29.3075 10.8053C29.3075 9.91541 28.586 9.19397 27.6962 9.19397H8.88477C7.99488 9.19397 7.27344 9.91541 7.27344 10.8053C7.27344 11.6952 7.99488 12.4166 8.88477 12.4166Z" fill="#32419C"/>
<path id="Vector_4" d="M35.9709 22.4891V32.1068C35.9709 32.6885 36.2844 33.225 36.7912 33.5106C37.037 33.649 37.3097 33.7181 37.5821 33.7181C37.8715 33.7181 38.1606 33.6402 38.4169 33.4851L41.1297 31.8422L43.8425 33.4851C44.3399 33.7863 44.9613 33.7962 45.4682 33.5107C45.9749 33.225 46.2885 32.6886 46.2885 32.1069V22.4892C47.8681 21.0721 48.8641 19.0168 48.8641 16.7327C48.8641 12.4678 45.3945 8.99817 41.1297 8.99817C36.8649 8.99817 33.3953 12.4678 33.3953 16.7327C33.3953 19.0167 34.3913 21.072 35.9709 22.4891ZM43.0659 29.2471L41.9645 28.58C41.4514 28.2692 40.8082 28.2692 40.2951 28.58L39.1936 29.2471V24.2215C39.8126 24.3816 40.4614 24.4669 41.1297 24.4669C41.7981 24.4669 42.4468 24.3816 43.0659 24.2215V29.2471ZM41.1297 12.2207C43.6175 12.2207 45.6415 14.2448 45.6415 16.7325C45.6415 19.2203 43.6175 21.2443 41.1297 21.2443C38.6419 21.2443 36.6179 19.2203 36.6179 16.7325C36.6179 14.2448 38.6419 12.2207 41.1297 12.2207Z" fill="#32419C"/>
<path id="Vector_5" d="M8.88477 33.6298H12.7673C13.3777 33.6298 13.9355 33.285 14.2086 32.739L16.0034 29.1493L17.7982 32.739C18.0477 33.238 18.5375 33.5724 19.0931 33.6231C19.1422 33.6276 19.1909 33.6298 19.2396 33.6298C19.7426 33.6298 20.2205 33.3942 20.5264 32.9878L22.5209 30.3399L23.5082 31.6717C24.3248 32.773 25.6309 33.4306 27.0019 33.4306H28.6673C29.5571 33.4306 30.2786 32.7092 30.2786 31.8193C30.2786 30.9294 29.5571 30.208 28.6673 30.208H27.0019C26.6468 30.208 26.3085 30.0377 26.097 29.7524L23.8254 26.6885C23.5228 26.2803 23.0453 26.0388 22.5371 26.0369C22.5351 26.0369 22.533 26.0369 22.531 26.0369C22.0251 26.0369 21.5484 26.2745 21.244 26.6788L19.5172 28.9714L17.4445 24.8259C17.1715 24.28 16.6136 23.9352 16.0032 23.9352C15.3928 23.9352 14.835 24.28 14.5619 24.8259L11.7712 30.4073H8.88477C7.99488 30.4073 7.27344 31.1288 7.27344 32.0187C7.27344 32.9086 7.99488 33.6298 8.88477 33.6298Z" fill="#32419C"/>
</g>
</svg>
