<svg width="56" height="55" viewBox="0 0 56 55" fill="none" xmlns="http://www.w3.org/2000/svg">
<g clip-path="url(#clip0_208_112)">
<path d="M50.666 11.3867H42.6094V6.55273C42.6094 3.88728 40.4408 1.71875 37.7754 1.71875H18.2246C15.5592 1.71875 13.3906 3.88728 13.3906 6.55273V11.3867H5.33398C2.66853 11.3867 0.5 13.5552 0.5 16.2207V22.666C0.5 23.5559 1.22145 24.2773 2.11133 24.2773V48.4473C2.11133 51.1127 4.27985 53.2812 6.94531 53.2812H49.0547C51.7201 53.2812 53.8887 51.1127 53.8887 48.4473V24.2773C54.7786 24.2773 55.5 23.5559 55.5 22.666V16.2207C55.5 13.5552 53.3315 11.3867 50.666 11.3867ZM16.6133 6.55273C16.6133 5.66425 17.3361 4.94141 18.2246 4.94141H37.7754C38.6639 4.94141 39.3867 5.66425 39.3867 6.55273V11.3867H16.6133V6.55273ZM50.666 48.4473C50.666 49.3358 49.9432 50.0586 49.0547 50.0586H6.94531C6.05683 50.0586 5.33398 49.3358 5.33398 48.4473V24.2773H10.4451C11.1103 26.1528 12.9013 27.5 15.002 27.5C17.1026 27.5 18.8936 26.1528 19.5588 24.2773H36.4412C37.1064 26.1528 38.8974 27.5 40.998 27.5C43.0987 27.5 44.8897 26.1528 45.5549 24.2773H50.666V48.4473ZM13.3906 22.666V21.0547H16.6133V22.666C16.6133 23.5545 15.8904 24.2773 15.002 24.2773C14.1135 24.2773 13.3906 23.5545 13.3906 22.666ZM39.3867 22.666V21.0547H42.6094V22.666C42.6094 23.5545 41.8865 24.2773 40.998 24.2773C40.1096 24.2773 39.3867 23.5545 39.3867 22.666ZM52.2773 21.0547H45.832V19.4434C45.832 18.5535 45.1106 17.832 44.2207 17.832H37.7754C36.8855 17.832 36.1641 18.5535 36.1641 19.4434V21.0547H19.8359V19.4434C19.8359 18.5535 19.1145 17.832 18.2246 17.832H11.7793C10.8894 17.832 10.168 18.5535 10.168 19.4434V21.0547H3.72266V16.2207C3.72266 15.3322 4.4455 14.6094 5.33398 14.6094H50.666C51.5545 14.6094 52.2773 15.3322 52.2773 16.2207V21.0547Z" fill="#32419C"/>
<path d="M37.7754 30.7227C36.8855 30.7227 36.1641 31.4441 36.1641 32.334C36.1641 33.2225 35.4412 33.9453 34.5527 33.9453C33.6642 33.9453 32.9414 33.2225 32.9414 32.334C32.9414 31.4455 33.6642 30.7227 34.5527 30.7227C35.4426 30.7227 36.1641 30.0012 36.1641 29.1113C36.1641 28.2214 35.4426 27.5 34.5527 27.5C31.8873 27.5 29.7187 29.6685 29.7187 32.334C29.7187 32.8308 29.7943 33.3103 29.9341 33.7618L24.1403 37.9896C23.3702 37.4711 22.4435 37.168 21.4473 37.168C18.7818 37.168 16.6133 39.3365 16.6133 42.002C16.6133 42.8918 17.3347 43.6133 18.2246 43.6133C19.1145 43.6133 19.8359 42.8918 19.8359 42.002C19.8359 41.1135 20.5588 40.3906 21.4473 40.3906C22.3358 40.3906 23.0586 41.1135 23.0586 42.002C23.0586 42.8904 22.3358 43.6133 21.4473 43.6133C20.5574 43.6133 19.8359 44.3347 19.8359 45.2246C19.8359 46.1145 20.5574 46.8359 21.4473 46.8359C24.1127 46.8359 26.2812 44.6674 26.2812 42.002C26.2812 41.5051 26.2057 41.0256 26.0659 40.5741L31.8597 36.3462C32.6298 36.8648 33.5565 37.168 34.5528 37.168C37.2183 37.168 39.3868 34.9994 39.3868 32.334C39.3867 31.4441 38.6653 30.7227 37.7754 30.7227Z" fill="#32419C"/>
</g>
<defs>
<clipPath id="clip0_208_112">
<rect width="55" height="55" fill="white" transform="translate(0.5)"/>
</clipPath>
</defs>
</svg>
