<svg width="45" height="45" viewBox="0 0 45 45" fill="none" xmlns="http://www.w3.org/2000/svg">
<g id="WhatsApp" clip-path="url(#clip0_212_1913)">
<path id="Vector" d="M22.4879 0.0117296C10.0689 0.0143647 0.00335537 10.0842 0.00599053 22.5033C0.00686891 26.8036 1.24091 31.0134 3.56161 34.6338L0.0630856 43.7109C-0.12322 44.1937 0.117106 44.7361 0.599868 44.9224C0.707821 44.964 0.822451 44.9854 0.938134 44.9852C1.04547 44.9857 1.15202 44.9674 1.25295 44.9308L10.6224 41.5859C21.1641 48.1514 35.0323 44.928 41.5977 34.3862C48.1631 23.8445 44.9398 9.97641 34.398 3.411C30.8245 1.18534 26.698 0.00760115 22.4879 0.0117296Z" fill="#32419C"/>
<path id="Vector_2" d="M33.2085 26.342C33.2085 26.342 30.913 25.2177 29.4757 24.4681C27.8492 23.6305 25.9378 25.199 25.0383 26.091C23.6385 25.5532 22.3599 24.7416 21.2774 23.7036C20.2393 22.6213 19.4276 21.3428 18.8901 19.9427C19.7821 19.0414 21.3467 17.1319 20.5129 15.5054C19.7727 14.0662 18.639 11.7726 18.639 11.7707C18.48 11.455 18.1568 11.2557 17.8032 11.2554H15.9294C13.2004 11.7267 11.2162 14.1078 11.2447 16.877C11.2447 19.819 14.7657 25.4707 17.14 27.8468C19.5143 30.2228 25.1659 33.7421 28.1097 33.7421C30.8789 33.7705 33.26 31.7862 33.7314 29.0574V27.1835C33.7316 26.8262 33.5289 26.4999 33.2085 26.342Z" fill="white"/>
</g>
<defs>
<clipPath id="clip0_212_1913">
<rect width="45" height="45" fill="white"/>
</clipPath>
</defs>
</svg>
