<svg width="28" height="36" viewBox="0 0 28 36" fill="none" xmlns="http://www.w3.org/2000/svg">
<path fill-rule="evenodd" clip-rule="evenodd" d="M14.576 35.817L14.58 35.815L14.59 35.808L14.62 35.785L14.738 35.7C14.8393 35.626 14.9827 35.518 15.168 35.376C15.536 35.094 16.058 34.679 16.681 34.146C18.3164 32.7482 19.8456 31.2306 21.256 29.606C24.564 25.78 28 20.32 28 14.076C28 10.346 26.526 6.766 23.902 4.126C22.6051 2.8193 21.0625 1.78204 19.3631 1.07392C17.6637 0.365807 15.841 0.000828597 14 0C12.159 0.000697612 10.3364 0.365518 8.63698 1.07346C6.93758 1.7814 5.39498 2.81848 4.098 4.125C1.4717 6.77122 -0.00143691 10.3487 1.05173e-06 14.077C1.05173e-06 20.32 3.436 25.78 6.744 29.606C8.15436 31.2306 9.68358 32.7482 11.319 34.146C11.943 34.679 12.464 35.094 12.832 35.376C13.0125 35.5151 13.1949 35.6517 13.379 35.786L13.411 35.808L13.42 35.815L13.424 35.817C13.769 36.06 14.231 36.06 14.576 35.817ZM19 14C19 15.3261 18.4732 16.5979 17.5355 17.5355C16.5979 18.4732 15.3261 19 14 19C12.6739 19 11.4021 18.4732 10.4645 17.5355C9.52678 16.5979 9 15.3261 9 14C9 12.6739 9.52678 11.4021 10.4645 10.4645C11.4021 9.52678 12.6739 9 14 9C15.3261 9 16.5979 9.52678 17.5355 10.4645C18.4732 11.4021 19 12.6739 19 14Z" fill="#32419C"/>
</svg>
